<mxfile host="Electron" agent="Mozilla/5.0 (Windows NT 10.0; Win64; x64) AppleWebKit/537.36 (KHTML, like Gecko) draw.io/28.1.2 Chrome/138.0.7204.243 Electron/37.4.0 Safari/537.36" version="28.1.2" pages="10">
  <diagram name="1 create person" id="QCmVjkABllY98V57rZox">
    <mxGraphModel dx="1042" dy="626" grid="1" gridSize="10" guides="1" tooltips="1" connect="1" arrows="1" fold="1" page="1" pageScale="1" pageWidth="827" pageHeight="1169" math="0" shadow="0">
      <root>
        <mxCell id="89kqw5IY4SVpUpeqwuFK-0" />
        <mxCell id="89kqw5IY4SVpUpeqwuFK-1" parent="89kqw5IY4SVpUpeqwuFK-0" />
        <mxCell id="89kqw5IY4SVpUpeqwuFK-2" value="" style="edgeStyle=orthogonalEdgeStyle;rounded=0;orthogonalLoop=1;jettySize=auto;html=1;" edge="1" parent="89kqw5IY4SVpUpeqwuFK-1" source="89kqw5IY4SVpUpeqwuFK-3" target="89kqw5IY4SVpUpeqwuFK-6">
          <mxGeometry relative="1" as="geometry" />
        </mxCell>
        <mxCell id="89kqw5IY4SVpUpeqwuFK-3" value="start" style="rounded=1;whiteSpace=wrap;html=1;arcSize=50;" vertex="1" parent="89kqw5IY4SVpUpeqwuFK-1">
          <mxGeometry x="20" y="30" width="120" height="60" as="geometry" />
        </mxCell>
        <mxCell id="89kqw5IY4SVpUpeqwuFK-4" value="end" style="rounded=1;whiteSpace=wrap;html=1;arcSize=50;" vertex="1" parent="89kqw5IY4SVpUpeqwuFK-1">
          <mxGeometry x="20" y="170" width="120" height="60" as="geometry" />
        </mxCell>
        <mxCell id="89kqw5IY4SVpUpeqwuFK-5" value="" style="edgeStyle=orthogonalEdgeStyle;rounded=0;orthogonalLoop=1;jettySize=auto;html=1;" edge="1" parent="89kqw5IY4SVpUpeqwuFK-1" source="89kqw5IY4SVpUpeqwuFK-6" target="89kqw5IY4SVpUpeqwuFK-8">
          <mxGeometry relative="1" as="geometry" />
        </mxCell>
        <mxCell id="89kqw5IY4SVpUpeqwuFK-6" value="press create person button" style="whiteSpace=wrap;html=1;rounded=0;arcSize=50;" vertex="1" parent="89kqw5IY4SVpUpeqwuFK-1">
          <mxGeometry x="220" y="30" width="120" height="60" as="geometry" />
        </mxCell>
        <mxCell id="89kqw5IY4SVpUpeqwuFK-7" value="" style="edgeStyle=orthogonalEdgeStyle;rounded=0;orthogonalLoop=1;jettySize=auto;html=1;" edge="1" parent="89kqw5IY4SVpUpeqwuFK-1" source="89kqw5IY4SVpUpeqwuFK-8" target="89kqw5IY4SVpUpeqwuFK-10">
          <mxGeometry relative="1" as="geometry" />
        </mxCell>
        <mxCell id="89kqw5IY4SVpUpeqwuFK-8" value="input person detail" style="whiteSpace=wrap;html=1;rounded=0;arcSize=50;" vertex="1" parent="89kqw5IY4SVpUpeqwuFK-1">
          <mxGeometry x="420" y="30" width="120" height="60" as="geometry" />
        </mxCell>
        <mxCell id="89kqw5IY4SVpUpeqwuFK-9" value="" style="edgeStyle=orthogonalEdgeStyle;rounded=0;orthogonalLoop=1;jettySize=auto;html=1;" edge="1" parent="89kqw5IY4SVpUpeqwuFK-1" source="89kqw5IY4SVpUpeqwuFK-10" target="89kqw5IY4SVpUpeqwuFK-12">
          <mxGeometry relative="1" as="geometry" />
        </mxCell>
        <mxCell id="89kqw5IY4SVpUpeqwuFK-10" value="check auth" style="shape=process;whiteSpace=wrap;html=1;backgroundOutline=1;" vertex="1" parent="89kqw5IY4SVpUpeqwuFK-1">
          <mxGeometry x="620" y="30" width="120" height="60" as="geometry" />
        </mxCell>
        <mxCell id="89kqw5IY4SVpUpeqwuFK-11" value="" style="edgeStyle=orthogonalEdgeStyle;rounded=0;orthogonalLoop=1;jettySize=auto;html=1;" edge="1" parent="89kqw5IY4SVpUpeqwuFK-1" source="89kqw5IY4SVpUpeqwuFK-12" target="89kqw5IY4SVpUpeqwuFK-15">
          <mxGeometry relative="1" as="geometry" />
        </mxCell>
        <mxCell id="89kqw5IY4SVpUpeqwuFK-12" value="use access token to create person" style="whiteSpace=wrap;html=1;" vertex="1" parent="89kqw5IY4SVpUpeqwuFK-1">
          <mxGeometry x="620" y="170" width="120" height="60" as="geometry" />
        </mxCell>
        <mxCell id="89kqw5IY4SVpUpeqwuFK-13" value="yes" style="edgeStyle=orthogonalEdgeStyle;rounded=0;orthogonalLoop=1;jettySize=auto;html=1;" edge="1" parent="89kqw5IY4SVpUpeqwuFK-1" source="89kqw5IY4SVpUpeqwuFK-15" target="89kqw5IY4SVpUpeqwuFK-17">
          <mxGeometry relative="1" as="geometry" />
        </mxCell>
        <mxCell id="89kqw5IY4SVpUpeqwuFK-14" value="no" style="edgeStyle=orthogonalEdgeStyle;rounded=0;orthogonalLoop=1;jettySize=auto;html=1;" edge="1" parent="89kqw5IY4SVpUpeqwuFK-1" source="89kqw5IY4SVpUpeqwuFK-15" target="89kqw5IY4SVpUpeqwuFK-20">
          <mxGeometry relative="1" as="geometry">
            <mxPoint x="480" y="310" as="targetPoint" />
          </mxGeometry>
        </mxCell>
        <mxCell id="89kqw5IY4SVpUpeqwuFK-15" value="success" style="rhombus;whiteSpace=wrap;html=1;" vertex="1" parent="89kqw5IY4SVpUpeqwuFK-1">
          <mxGeometry x="440" y="160" width="80" height="80" as="geometry" />
        </mxCell>
        <mxCell id="89kqw5IY4SVpUpeqwuFK-16" style="edgeStyle=orthogonalEdgeStyle;rounded=0;orthogonalLoop=1;jettySize=auto;html=1;" edge="1" parent="89kqw5IY4SVpUpeqwuFK-1" source="89kqw5IY4SVpUpeqwuFK-17" target="89kqw5IY4SVpUpeqwuFK-4">
          <mxGeometry relative="1" as="geometry" />
        </mxCell>
        <mxCell id="89kqw5IY4SVpUpeqwuFK-17" value="show persons" style="rounded=0;whiteSpace=wrap;html=1;" vertex="1" parent="89kqw5IY4SVpUpeqwuFK-1">
          <mxGeometry x="220" y="170" width="120" height="60" as="geometry" />
        </mxCell>
        <mxCell id="89kqw5IY4SVpUpeqwuFK-18" value="no" style="edgeStyle=orthogonalEdgeStyle;rounded=0;orthogonalLoop=1;jettySize=auto;html=1;" edge="1" parent="89kqw5IY4SVpUpeqwuFK-1" source="89kqw5IY4SVpUpeqwuFK-20" target="89kqw5IY4SVpUpeqwuFK-24">
          <mxGeometry relative="1" as="geometry">
            <mxPoint x="320" y="350" as="targetPoint" />
          </mxGeometry>
        </mxCell>
        <mxCell id="89kqw5IY4SVpUpeqwuFK-19" value="yes" style="edgeStyle=orthogonalEdgeStyle;rounded=0;orthogonalLoop=1;jettySize=auto;html=1;" edge="1" parent="89kqw5IY4SVpUpeqwuFK-1" source="89kqw5IY4SVpUpeqwuFK-20" target="89kqw5IY4SVpUpeqwuFK-22">
          <mxGeometry relative="1" as="geometry">
            <mxPoint x="480" y="460" as="targetPoint" />
          </mxGeometry>
        </mxCell>
        <mxCell id="89kqw5IY4SVpUpeqwuFK-20" value="&lt;font style=&quot;font-size: 10px;&quot;&gt;is unauthorize&lt;/font&gt;" style="rhombus;whiteSpace=wrap;html=1;" vertex="1" parent="89kqw5IY4SVpUpeqwuFK-1">
          <mxGeometry x="440" y="310" width="80" height="80" as="geometry" />
        </mxCell>
        <mxCell id="89kqw5IY4SVpUpeqwuFK-21" style="edgeStyle=orthogonalEdgeStyle;rounded=0;orthogonalLoop=1;jettySize=auto;html=1;" edge="1" parent="89kqw5IY4SVpUpeqwuFK-1" source="89kqw5IY4SVpUpeqwuFK-22" target="89kqw5IY4SVpUpeqwuFK-4">
          <mxGeometry relative="1" as="geometry">
            <Array as="points">
              <mxPoint x="680" y="420" />
              <mxPoint x="80" y="420" />
            </Array>
          </mxGeometry>
        </mxCell>
        <mxCell id="89kqw5IY4SVpUpeqwuFK-22" value="logout" style="shape=process;whiteSpace=wrap;html=1;backgroundOutline=1;" vertex="1" parent="89kqw5IY4SVpUpeqwuFK-1">
          <mxGeometry x="620" y="320" width="120" height="60" as="geometry" />
        </mxCell>
        <mxCell id="89kqw5IY4SVpUpeqwuFK-23" style="edgeStyle=orthogonalEdgeStyle;rounded=0;orthogonalLoop=1;jettySize=auto;html=1;" edge="1" parent="89kqw5IY4SVpUpeqwuFK-1" source="89kqw5IY4SVpUpeqwuFK-24" target="89kqw5IY4SVpUpeqwuFK-4">
          <mxGeometry relative="1" as="geometry" />
        </mxCell>
        <mxCell id="89kqw5IY4SVpUpeqwuFK-24" value="show error" style="rounded=0;whiteSpace=wrap;html=1;" vertex="1" parent="89kqw5IY4SVpUpeqwuFK-1">
          <mxGeometry x="220" y="320" width="120" height="60" as="geometry" />
        </mxCell>
      </root>
    </mxGraphModel>
  </diagram>
  <diagram name="2 read persons" id="ZZvxJtizxk6Mw-45poKB">
    <mxGraphModel dx="1042" dy="626" grid="1" gridSize="10" guides="1" tooltips="1" connect="1" arrows="1" fold="1" page="1" pageScale="1" pageWidth="827" pageHeight="1169" math="0" shadow="0">
      <root>
        <mxCell id="vX8nLBXHPkxu4AXQ9sBN-0" />
        <mxCell id="vX8nLBXHPkxu4AXQ9sBN-1" parent="vX8nLBXHPkxu4AXQ9sBN-0" />
        <mxCell id="vX8nLBXHPkxu4AXQ9sBN-2" value="" style="edgeStyle=orthogonalEdgeStyle;rounded=0;orthogonalLoop=1;jettySize=auto;html=1;" edge="1" parent="vX8nLBXHPkxu4AXQ9sBN-1" source="vX8nLBXHPkxu4AXQ9sBN-3" target="vX8nLBXHPkxu4AXQ9sBN-6">
          <mxGeometry relative="1" as="geometry" />
        </mxCell>
        <mxCell id="vX8nLBXHPkxu4AXQ9sBN-3" value="start" style="rounded=1;whiteSpace=wrap;html=1;arcSize=50;" vertex="1" parent="vX8nLBXHPkxu4AXQ9sBN-1">
          <mxGeometry x="20" y="20" width="120" height="60" as="geometry" />
        </mxCell>
        <mxCell id="vX8nLBXHPkxu4AXQ9sBN-4" value="end" style="rounded=1;whiteSpace=wrap;html=1;arcSize=50;" vertex="1" parent="vX8nLBXHPkxu4AXQ9sBN-1">
          <mxGeometry x="20" y="160" width="120" height="60" as="geometry" />
        </mxCell>
        <mxCell id="vX8nLBXHPkxu4AXQ9sBN-5" value="" style="edgeStyle=orthogonalEdgeStyle;rounded=0;orthogonalLoop=1;jettySize=auto;html=1;" edge="1" parent="vX8nLBXHPkxu4AXQ9sBN-1" source="vX8nLBXHPkxu4AXQ9sBN-6" target="vX8nLBXHPkxu4AXQ9sBN-8">
          <mxGeometry relative="1" as="geometry" />
        </mxCell>
        <mxCell id="vX8nLBXHPkxu4AXQ9sBN-6" value="check auth" style="shape=process;whiteSpace=wrap;html=1;backgroundOutline=1;" vertex="1" parent="vX8nLBXHPkxu4AXQ9sBN-1">
          <mxGeometry x="200" y="20" width="120" height="60" as="geometry" />
        </mxCell>
        <mxCell id="vX8nLBXHPkxu4AXQ9sBN-7" value="" style="edgeStyle=orthogonalEdgeStyle;rounded=0;orthogonalLoop=1;jettySize=auto;html=1;" edge="1" parent="vX8nLBXHPkxu4AXQ9sBN-1" source="vX8nLBXHPkxu4AXQ9sBN-8" target="vX8nLBXHPkxu4AXQ9sBN-11">
          <mxGeometry relative="1" as="geometry" />
        </mxCell>
        <mxCell id="vX8nLBXHPkxu4AXQ9sBN-8" value="use access token to get persons" style="whiteSpace=wrap;html=1;" vertex="1" parent="vX8nLBXHPkxu4AXQ9sBN-1">
          <mxGeometry x="400" y="20" width="120" height="60" as="geometry" />
        </mxCell>
        <mxCell id="vX8nLBXHPkxu4AXQ9sBN-9" value="no" style="edgeStyle=orthogonalEdgeStyle;rounded=0;orthogonalLoop=1;jettySize=auto;html=1;" edge="1" parent="vX8nLBXHPkxu4AXQ9sBN-1" source="vX8nLBXHPkxu4AXQ9sBN-11" target="vX8nLBXHPkxu4AXQ9sBN-13">
          <mxGeometry relative="1" as="geometry" />
        </mxCell>
        <mxCell id="vX8nLBXHPkxu4AXQ9sBN-10" value="yes" style="edgeStyle=orthogonalEdgeStyle;rounded=0;orthogonalLoop=1;jettySize=auto;html=1;" edge="1" parent="vX8nLBXHPkxu4AXQ9sBN-1" source="vX8nLBXHPkxu4AXQ9sBN-11" target="vX8nLBXHPkxu4AXQ9sBN-15">
          <mxGeometry relative="1" as="geometry" />
        </mxCell>
        <mxCell id="vX8nLBXHPkxu4AXQ9sBN-11" value="is success" style="rhombus;whiteSpace=wrap;html=1;" vertex="1" parent="vX8nLBXHPkxu4AXQ9sBN-1">
          <mxGeometry x="420" y="150" width="80" height="80" as="geometry" />
        </mxCell>
        <mxCell id="vX8nLBXHPkxu4AXQ9sBN-12" style="edgeStyle=orthogonalEdgeStyle;rounded=0;orthogonalLoop=1;jettySize=auto;html=1;" edge="1" parent="vX8nLBXHPkxu4AXQ9sBN-1" source="vX8nLBXHPkxu4AXQ9sBN-13" target="vX8nLBXHPkxu4AXQ9sBN-4">
          <mxGeometry relative="1" as="geometry">
            <Array as="points">
              <mxPoint x="620" y="260" />
              <mxPoint x="80" y="260" />
            </Array>
          </mxGeometry>
        </mxCell>
        <mxCell id="vX8nLBXHPkxu4AXQ9sBN-13" value="show error" style="whiteSpace=wrap;html=1;" vertex="1" parent="vX8nLBXHPkxu4AXQ9sBN-1">
          <mxGeometry x="560" y="160" width="120" height="60" as="geometry" />
        </mxCell>
        <mxCell id="vX8nLBXHPkxu4AXQ9sBN-14" style="edgeStyle=orthogonalEdgeStyle;rounded=0;orthogonalLoop=1;jettySize=auto;html=1;" edge="1" parent="vX8nLBXHPkxu4AXQ9sBN-1" source="vX8nLBXHPkxu4AXQ9sBN-15" target="vX8nLBXHPkxu4AXQ9sBN-4">
          <mxGeometry relative="1" as="geometry" />
        </mxCell>
        <mxCell id="vX8nLBXHPkxu4AXQ9sBN-15" value="show persons" style="whiteSpace=wrap;html=1;" vertex="1" parent="vX8nLBXHPkxu4AXQ9sBN-1">
          <mxGeometry x="200" y="160" width="120" height="60" as="geometry" />
        </mxCell>
      </root>
    </mxGraphModel>
  </diagram>
  <diagram name="3 update person" id="bgBa9I0nju7oVBZBUmHU">
    <mxGraphModel dx="1042" dy="626" grid="1" gridSize="10" guides="1" tooltips="1" connect="1" arrows="1" fold="1" page="1" pageScale="1" pageWidth="827" pageHeight="1169" math="0" shadow="0">
      <root>
        <mxCell id="CjMaCbACTjVQpLdgVZ3A-0" />
        <mxCell id="CjMaCbACTjVQpLdgVZ3A-1" parent="CjMaCbACTjVQpLdgVZ3A-0" />
        <mxCell id="CjMaCbACTjVQpLdgVZ3A-2" value="" style="edgeStyle=orthogonalEdgeStyle;rounded=0;orthogonalLoop=1;jettySize=auto;html=1;" edge="1" parent="CjMaCbACTjVQpLdgVZ3A-1" source="CjMaCbACTjVQpLdgVZ3A-3" target="CjMaCbACTjVQpLdgVZ3A-6">
          <mxGeometry relative="1" as="geometry" />
        </mxCell>
        <mxCell id="CjMaCbACTjVQpLdgVZ3A-3" value="start" style="rounded=1;whiteSpace=wrap;html=1;arcSize=50;" vertex="1" parent="CjMaCbACTjVQpLdgVZ3A-1">
          <mxGeometry x="20" y="30" width="120" height="60" as="geometry" />
        </mxCell>
        <mxCell id="CjMaCbACTjVQpLdgVZ3A-4" value="end" style="rounded=1;whiteSpace=wrap;html=1;arcSize=50;" vertex="1" parent="CjMaCbACTjVQpLdgVZ3A-1">
          <mxGeometry x="20" y="170" width="120" height="60" as="geometry" />
        </mxCell>
        <mxCell id="CjMaCbACTjVQpLdgVZ3A-5" value="" style="edgeStyle=orthogonalEdgeStyle;rounded=0;orthogonalLoop=1;jettySize=auto;html=1;" edge="1" parent="CjMaCbACTjVQpLdgVZ3A-1" source="CjMaCbACTjVQpLdgVZ3A-6" target="CjMaCbACTjVQpLdgVZ3A-8">
          <mxGeometry relative="1" as="geometry" />
        </mxCell>
        <mxCell id="CjMaCbACTjVQpLdgVZ3A-6" value="press update person button" style="whiteSpace=wrap;html=1;rounded=0;arcSize=50;" vertex="1" parent="CjMaCbACTjVQpLdgVZ3A-1">
          <mxGeometry x="220" y="30" width="120" height="60" as="geometry" />
        </mxCell>
        <mxCell id="CjMaCbACTjVQpLdgVZ3A-7" value="" style="edgeStyle=orthogonalEdgeStyle;rounded=0;orthogonalLoop=1;jettySize=auto;html=1;" edge="1" parent="CjMaCbACTjVQpLdgVZ3A-1" source="CjMaCbACTjVQpLdgVZ3A-8" target="CjMaCbACTjVQpLdgVZ3A-10">
          <mxGeometry relative="1" as="geometry" />
        </mxCell>
        <mxCell id="CjMaCbACTjVQpLdgVZ3A-8" value="update person detail" style="whiteSpace=wrap;html=1;rounded=0;arcSize=50;" vertex="1" parent="CjMaCbACTjVQpLdgVZ3A-1">
          <mxGeometry x="420" y="30" width="120" height="60" as="geometry" />
        </mxCell>
        <mxCell id="CjMaCbACTjVQpLdgVZ3A-9" value="" style="edgeStyle=orthogonalEdgeStyle;rounded=0;orthogonalLoop=1;jettySize=auto;html=1;" edge="1" parent="CjMaCbACTjVQpLdgVZ3A-1" source="CjMaCbACTjVQpLdgVZ3A-10" target="CjMaCbACTjVQpLdgVZ3A-12">
          <mxGeometry relative="1" as="geometry" />
        </mxCell>
        <mxCell id="CjMaCbACTjVQpLdgVZ3A-10" value="check auth" style="shape=process;whiteSpace=wrap;html=1;backgroundOutline=1;" vertex="1" parent="CjMaCbACTjVQpLdgVZ3A-1">
          <mxGeometry x="620" y="30" width="120" height="60" as="geometry" />
        </mxCell>
        <mxCell id="CjMaCbACTjVQpLdgVZ3A-11" value="" style="edgeStyle=orthogonalEdgeStyle;rounded=0;orthogonalLoop=1;jettySize=auto;html=1;" edge="1" parent="CjMaCbACTjVQpLdgVZ3A-1" source="CjMaCbACTjVQpLdgVZ3A-12" target="CjMaCbACTjVQpLdgVZ3A-15">
          <mxGeometry relative="1" as="geometry" />
        </mxCell>
        <mxCell id="CjMaCbACTjVQpLdgVZ3A-12" value="use access token to update person" style="whiteSpace=wrap;html=1;" vertex="1" parent="CjMaCbACTjVQpLdgVZ3A-1">
          <mxGeometry x="620" y="170" width="120" height="60" as="geometry" />
        </mxCell>
        <mxCell id="CjMaCbACTjVQpLdgVZ3A-13" value="yes" style="edgeStyle=orthogonalEdgeStyle;rounded=0;orthogonalLoop=1;jettySize=auto;html=1;" edge="1" parent="CjMaCbACTjVQpLdgVZ3A-1" source="CjMaCbACTjVQpLdgVZ3A-15" target="CjMaCbACTjVQpLdgVZ3A-17">
          <mxGeometry relative="1" as="geometry" />
        </mxCell>
        <mxCell id="CjMaCbACTjVQpLdgVZ3A-14" value="no" style="edgeStyle=orthogonalEdgeStyle;rounded=0;orthogonalLoop=1;jettySize=auto;html=1;" edge="1" parent="CjMaCbACTjVQpLdgVZ3A-1" source="CjMaCbACTjVQpLdgVZ3A-15" target="CjMaCbACTjVQpLdgVZ3A-20">
          <mxGeometry relative="1" as="geometry">
            <mxPoint x="480" y="310" as="targetPoint" />
          </mxGeometry>
        </mxCell>
        <mxCell id="CjMaCbACTjVQpLdgVZ3A-15" value="success" style="rhombus;whiteSpace=wrap;html=1;" vertex="1" parent="CjMaCbACTjVQpLdgVZ3A-1">
          <mxGeometry x="440" y="160" width="80" height="80" as="geometry" />
        </mxCell>
        <mxCell id="CjMaCbACTjVQpLdgVZ3A-16" style="edgeStyle=orthogonalEdgeStyle;rounded=0;orthogonalLoop=1;jettySize=auto;html=1;" edge="1" parent="CjMaCbACTjVQpLdgVZ3A-1" source="CjMaCbACTjVQpLdgVZ3A-17" target="CjMaCbACTjVQpLdgVZ3A-4">
          <mxGeometry relative="1" as="geometry" />
        </mxCell>
        <mxCell id="CjMaCbACTjVQpLdgVZ3A-17" value="show persons" style="rounded=0;whiteSpace=wrap;html=1;" vertex="1" parent="CjMaCbACTjVQpLdgVZ3A-1">
          <mxGeometry x="220" y="170" width="120" height="60" as="geometry" />
        </mxCell>
        <mxCell id="CjMaCbACTjVQpLdgVZ3A-18" value="no" style="edgeStyle=orthogonalEdgeStyle;rounded=0;orthogonalLoop=1;jettySize=auto;html=1;" edge="1" parent="CjMaCbACTjVQpLdgVZ3A-1" source="CjMaCbACTjVQpLdgVZ3A-20" target="CjMaCbACTjVQpLdgVZ3A-24">
          <mxGeometry relative="1" as="geometry">
            <mxPoint x="320" y="350" as="targetPoint" />
          </mxGeometry>
        </mxCell>
        <mxCell id="CjMaCbACTjVQpLdgVZ3A-19" value="yes" style="edgeStyle=orthogonalEdgeStyle;rounded=0;orthogonalLoop=1;jettySize=auto;html=1;" edge="1" parent="CjMaCbACTjVQpLdgVZ3A-1" source="CjMaCbACTjVQpLdgVZ3A-20" target="CjMaCbACTjVQpLdgVZ3A-22">
          <mxGeometry relative="1" as="geometry">
            <mxPoint x="480" y="460" as="targetPoint" />
          </mxGeometry>
        </mxCell>
        <mxCell id="CjMaCbACTjVQpLdgVZ3A-20" value="&lt;font style=&quot;font-size: 10px;&quot;&gt;is unauthorize&lt;/font&gt;" style="rhombus;whiteSpace=wrap;html=1;" vertex="1" parent="CjMaCbACTjVQpLdgVZ3A-1">
          <mxGeometry x="440" y="310" width="80" height="80" as="geometry" />
        </mxCell>
        <mxCell id="CjMaCbACTjVQpLdgVZ3A-21" style="edgeStyle=orthogonalEdgeStyle;rounded=0;orthogonalLoop=1;jettySize=auto;html=1;" edge="1" parent="CjMaCbACTjVQpLdgVZ3A-1" source="CjMaCbACTjVQpLdgVZ3A-22" target="CjMaCbACTjVQpLdgVZ3A-4">
          <mxGeometry relative="1" as="geometry">
            <Array as="points">
              <mxPoint x="680" y="420" />
              <mxPoint x="80" y="420" />
            </Array>
          </mxGeometry>
        </mxCell>
        <mxCell id="CjMaCbACTjVQpLdgVZ3A-22" value="logout" style="shape=process;whiteSpace=wrap;html=1;backgroundOutline=1;" vertex="1" parent="CjMaCbACTjVQpLdgVZ3A-1">
          <mxGeometry x="620" y="320" width="120" height="60" as="geometry" />
        </mxCell>
        <mxCell id="CjMaCbACTjVQpLdgVZ3A-23" style="edgeStyle=orthogonalEdgeStyle;rounded=0;orthogonalLoop=1;jettySize=auto;html=1;" edge="1" parent="CjMaCbACTjVQpLdgVZ3A-1" source="CjMaCbACTjVQpLdgVZ3A-24" target="CjMaCbACTjVQpLdgVZ3A-4">
          <mxGeometry relative="1" as="geometry" />
        </mxCell>
        <mxCell id="CjMaCbACTjVQpLdgVZ3A-24" value="show error" style="rounded=0;whiteSpace=wrap;html=1;" vertex="1" parent="CjMaCbACTjVQpLdgVZ3A-1">
          <mxGeometry x="220" y="320" width="120" height="60" as="geometry" />
        </mxCell>
      </root>
    </mxGraphModel>
  </diagram>
  <diagram name="4 delete person" id="djBDxOBVskYSckra9UEm">
    <mxGraphModel dx="1042" dy="626" grid="1" gridSize="10" guides="1" tooltips="1" connect="1" arrows="1" fold="1" page="1" pageScale="1" pageWidth="827" pageHeight="1169" math="0" shadow="0">
      <root>
        <mxCell id="CZhiSMGbWlyVM7kjjiiq-0" />
        <mxCell id="CZhiSMGbWlyVM7kjjiiq-1" parent="CZhiSMGbWlyVM7kjjiiq-0" />
        <mxCell id="CZhiSMGbWlyVM7kjjiiq-2" value="" style="edgeStyle=orthogonalEdgeStyle;rounded=0;orthogonalLoop=1;jettySize=auto;html=1;" edge="1" parent="CZhiSMGbWlyVM7kjjiiq-1" source="CZhiSMGbWlyVM7kjjiiq-3" target="CZhiSMGbWlyVM7kjjiiq-6">
          <mxGeometry relative="1" as="geometry" />
        </mxCell>
        <mxCell id="CZhiSMGbWlyVM7kjjiiq-3" value="start" style="rounded=1;whiteSpace=wrap;html=1;arcSize=50;" vertex="1" parent="CZhiSMGbWlyVM7kjjiiq-1">
          <mxGeometry x="20" y="30" width="120" height="60" as="geometry" />
        </mxCell>
        <mxCell id="CZhiSMGbWlyVM7kjjiiq-4" value="end" style="rounded=1;whiteSpace=wrap;html=1;arcSize=50;" vertex="1" parent="CZhiSMGbWlyVM7kjjiiq-1">
          <mxGeometry x="20" y="170" width="120" height="60" as="geometry" />
        </mxCell>
        <mxCell id="CZhiSMGbWlyVM7kjjiiq-5" value="" style="edgeStyle=orthogonalEdgeStyle;rounded=0;orthogonalLoop=1;jettySize=auto;html=1;" edge="1" parent="CZhiSMGbWlyVM7kjjiiq-1" source="CZhiSMGbWlyVM7kjjiiq-6" target="CZhiSMGbWlyVM7kjjiiq-8">
          <mxGeometry relative="1" as="geometry" />
        </mxCell>
        <mxCell id="CZhiSMGbWlyVM7kjjiiq-6" value="press update person button" style="whiteSpace=wrap;html=1;rounded=0;arcSize=50;" vertex="1" parent="CZhiSMGbWlyVM7kjjiiq-1">
          <mxGeometry x="220" y="30" width="120" height="60" as="geometry" />
        </mxCell>
        <mxCell id="CZhiSMGbWlyVM7kjjiiq-7" value="" style="edgeStyle=orthogonalEdgeStyle;rounded=0;orthogonalLoop=1;jettySize=auto;html=1;" edge="1" parent="CZhiSMGbWlyVM7kjjiiq-1" source="CZhiSMGbWlyVM7kjjiiq-8" target="CZhiSMGbWlyVM7kjjiiq-10">
          <mxGeometry relative="1" as="geometry" />
        </mxCell>
        <mxCell id="CZhiSMGbWlyVM7kjjiiq-8" value="press delete person button" style="whiteSpace=wrap;html=1;rounded=0;arcSize=50;" vertex="1" parent="CZhiSMGbWlyVM7kjjiiq-1">
          <mxGeometry x="420" y="30" width="120" height="60" as="geometry" />
        </mxCell>
        <mxCell id="CZhiSMGbWlyVM7kjjiiq-9" value="" style="edgeStyle=orthogonalEdgeStyle;rounded=0;orthogonalLoop=1;jettySize=auto;html=1;" edge="1" parent="CZhiSMGbWlyVM7kjjiiq-1" source="CZhiSMGbWlyVM7kjjiiq-10" target="CZhiSMGbWlyVM7kjjiiq-12">
          <mxGeometry relative="1" as="geometry" />
        </mxCell>
        <mxCell id="CZhiSMGbWlyVM7kjjiiq-10" value="check auth" style="shape=process;whiteSpace=wrap;html=1;backgroundOutline=1;" vertex="1" parent="CZhiSMGbWlyVM7kjjiiq-1">
          <mxGeometry x="620" y="30" width="120" height="60" as="geometry" />
        </mxCell>
        <mxCell id="CZhiSMGbWlyVM7kjjiiq-11" value="" style="edgeStyle=orthogonalEdgeStyle;rounded=0;orthogonalLoop=1;jettySize=auto;html=1;" edge="1" parent="CZhiSMGbWlyVM7kjjiiq-1" source="CZhiSMGbWlyVM7kjjiiq-12" target="CZhiSMGbWlyVM7kjjiiq-15">
          <mxGeometry relative="1" as="geometry" />
        </mxCell>
        <mxCell id="CZhiSMGbWlyVM7kjjiiq-12" value="use access token to delete person" style="whiteSpace=wrap;html=1;" vertex="1" parent="CZhiSMGbWlyVM7kjjiiq-1">
          <mxGeometry x="620" y="170" width="120" height="60" as="geometry" />
        </mxCell>
        <mxCell id="CZhiSMGbWlyVM7kjjiiq-13" value="yes" style="edgeStyle=orthogonalEdgeStyle;rounded=0;orthogonalLoop=1;jettySize=auto;html=1;" edge="1" parent="CZhiSMGbWlyVM7kjjiiq-1" source="CZhiSMGbWlyVM7kjjiiq-15" target="CZhiSMGbWlyVM7kjjiiq-17">
          <mxGeometry relative="1" as="geometry" />
        </mxCell>
        <mxCell id="CZhiSMGbWlyVM7kjjiiq-14" value="no" style="edgeStyle=orthogonalEdgeStyle;rounded=0;orthogonalLoop=1;jettySize=auto;html=1;" edge="1" parent="CZhiSMGbWlyVM7kjjiiq-1" source="CZhiSMGbWlyVM7kjjiiq-15" target="CZhiSMGbWlyVM7kjjiiq-20">
          <mxGeometry relative="1" as="geometry">
            <mxPoint x="480" y="310" as="targetPoint" />
          </mxGeometry>
        </mxCell>
        <mxCell id="CZhiSMGbWlyVM7kjjiiq-15" value="success" style="rhombus;whiteSpace=wrap;html=1;" vertex="1" parent="CZhiSMGbWlyVM7kjjiiq-1">
          <mxGeometry x="440" y="160" width="80" height="80" as="geometry" />
        </mxCell>
        <mxCell id="CZhiSMGbWlyVM7kjjiiq-16" style="edgeStyle=orthogonalEdgeStyle;rounded=0;orthogonalLoop=1;jettySize=auto;html=1;" edge="1" parent="CZhiSMGbWlyVM7kjjiiq-1" source="CZhiSMGbWlyVM7kjjiiq-17" target="CZhiSMGbWlyVM7kjjiiq-4">
          <mxGeometry relative="1" as="geometry" />
        </mxCell>
        <mxCell id="CZhiSMGbWlyVM7kjjiiq-17" value="show persons" style="rounded=0;whiteSpace=wrap;html=1;" vertex="1" parent="CZhiSMGbWlyVM7kjjiiq-1">
          <mxGeometry x="220" y="170" width="120" height="60" as="geometry" />
        </mxCell>
        <mxCell id="CZhiSMGbWlyVM7kjjiiq-18" value="no" style="edgeStyle=orthogonalEdgeStyle;rounded=0;orthogonalLoop=1;jettySize=auto;html=1;" edge="1" parent="CZhiSMGbWlyVM7kjjiiq-1" source="CZhiSMGbWlyVM7kjjiiq-20" target="CZhiSMGbWlyVM7kjjiiq-24">
          <mxGeometry relative="1" as="geometry">
            <mxPoint x="320" y="350" as="targetPoint" />
          </mxGeometry>
        </mxCell>
        <mxCell id="CZhiSMGbWlyVM7kjjiiq-19" value="yes" style="edgeStyle=orthogonalEdgeStyle;rounded=0;orthogonalLoop=1;jettySize=auto;html=1;" edge="1" parent="CZhiSMGbWlyVM7kjjiiq-1" source="CZhiSMGbWlyVM7kjjiiq-20" target="CZhiSMGbWlyVM7kjjiiq-22">
          <mxGeometry relative="1" as="geometry">
            <mxPoint x="480" y="460" as="targetPoint" />
          </mxGeometry>
        </mxCell>
        <mxCell id="CZhiSMGbWlyVM7kjjiiq-20" value="&lt;font style=&quot;font-size: 10px;&quot;&gt;is unauthorize&lt;/font&gt;" style="rhombus;whiteSpace=wrap;html=1;" vertex="1" parent="CZhiSMGbWlyVM7kjjiiq-1">
          <mxGeometry x="440" y="310" width="80" height="80" as="geometry" />
        </mxCell>
        <mxCell id="CZhiSMGbWlyVM7kjjiiq-21" style="edgeStyle=orthogonalEdgeStyle;rounded=0;orthogonalLoop=1;jettySize=auto;html=1;" edge="1" parent="CZhiSMGbWlyVM7kjjiiq-1" source="CZhiSMGbWlyVM7kjjiiq-22" target="CZhiSMGbWlyVM7kjjiiq-4">
          <mxGeometry relative="1" as="geometry">
            <Array as="points">
              <mxPoint x="680" y="420" />
              <mxPoint x="80" y="420" />
            </Array>
          </mxGeometry>
        </mxCell>
        <mxCell id="CZhiSMGbWlyVM7kjjiiq-22" value="logout" style="shape=process;whiteSpace=wrap;html=1;backgroundOutline=1;" vertex="1" parent="CZhiSMGbWlyVM7kjjiiq-1">
          <mxGeometry x="620" y="320" width="120" height="60" as="geometry" />
        </mxCell>
        <mxCell id="CZhiSMGbWlyVM7kjjiiq-23" style="edgeStyle=orthogonalEdgeStyle;rounded=0;orthogonalLoop=1;jettySize=auto;html=1;" edge="1" parent="CZhiSMGbWlyVM7kjjiiq-1" source="CZhiSMGbWlyVM7kjjiiq-24" target="CZhiSMGbWlyVM7kjjiiq-4">
          <mxGeometry relative="1" as="geometry" />
        </mxCell>
        <mxCell id="CZhiSMGbWlyVM7kjjiiq-24" value="show error" style="rounded=0;whiteSpace=wrap;html=1;" vertex="1" parent="CZhiSMGbWlyVM7kjjiiq-1">
          <mxGeometry x="220" y="320" width="120" height="60" as="geometry" />
        </mxCell>
      </root>
    </mxGraphModel>
  </diagram>
  <diagram name="5 read persons log" id="KcIKUt5hJwkjlvZtaupu">
    <mxGraphModel dx="1042" dy="626" grid="1" gridSize="10" guides="1" tooltips="1" connect="1" arrows="1" fold="1" page="1" pageScale="1" pageWidth="827" pageHeight="1169" math="0" shadow="0">
      <root>
        <mxCell id="ij3mbTP9CK1a5oeRvw_9-0" />
        <mxCell id="ij3mbTP9CK1a5oeRvw_9-1" parent="ij3mbTP9CK1a5oeRvw_9-0" />
        <mxCell id="ij3mbTP9CK1a5oeRvw_9-2" value="" style="edgeStyle=orthogonalEdgeStyle;rounded=0;orthogonalLoop=1;jettySize=auto;html=1;" edge="1" parent="ij3mbTP9CK1a5oeRvw_9-1" source="ij3mbTP9CK1a5oeRvw_9-3" target="ij3mbTP9CK1a5oeRvw_9-6">
          <mxGeometry relative="1" as="geometry" />
        </mxCell>
        <mxCell id="ij3mbTP9CK1a5oeRvw_9-3" value="start" style="rounded=1;whiteSpace=wrap;html=1;arcSize=50;" vertex="1" parent="ij3mbTP9CK1a5oeRvw_9-1">
          <mxGeometry x="20" y="20" width="120" height="60" as="geometry" />
        </mxCell>
        <mxCell id="ij3mbTP9CK1a5oeRvw_9-4" value="end" style="rounded=1;whiteSpace=wrap;html=1;arcSize=50;" vertex="1" parent="ij3mbTP9CK1a5oeRvw_9-1">
          <mxGeometry x="20" y="160" width="120" height="60" as="geometry" />
        </mxCell>
        <mxCell id="ij3mbTP9CK1a5oeRvw_9-5" value="" style="edgeStyle=orthogonalEdgeStyle;rounded=0;orthogonalLoop=1;jettySize=auto;html=1;" edge="1" parent="ij3mbTP9CK1a5oeRvw_9-1" source="ij3mbTP9CK1a5oeRvw_9-6" target="ij3mbTP9CK1a5oeRvw_9-8">
          <mxGeometry relative="1" as="geometry" />
        </mxCell>
        <mxCell id="ij3mbTP9CK1a5oeRvw_9-6" value="check auth" style="shape=process;whiteSpace=wrap;html=1;backgroundOutline=1;" vertex="1" parent="ij3mbTP9CK1a5oeRvw_9-1">
          <mxGeometry x="200" y="20" width="120" height="60" as="geometry" />
        </mxCell>
        <mxCell id="ij3mbTP9CK1a5oeRvw_9-7" value="" style="edgeStyle=orthogonalEdgeStyle;rounded=0;orthogonalLoop=1;jettySize=auto;html=1;" edge="1" parent="ij3mbTP9CK1a5oeRvw_9-1" source="ij3mbTP9CK1a5oeRvw_9-8" target="ij3mbTP9CK1a5oeRvw_9-11">
          <mxGeometry relative="1" as="geometry" />
        </mxCell>
        <mxCell id="ij3mbTP9CK1a5oeRvw_9-8" value="use access token to get person logs" style="whiteSpace=wrap;html=1;" vertex="1" parent="ij3mbTP9CK1a5oeRvw_9-1">
          <mxGeometry x="400" y="20" width="120" height="60" as="geometry" />
        </mxCell>
        <mxCell id="ij3mbTP9CK1a5oeRvw_9-9" value="no" style="edgeStyle=orthogonalEdgeStyle;rounded=0;orthogonalLoop=1;jettySize=auto;html=1;" edge="1" parent="ij3mbTP9CK1a5oeRvw_9-1" source="ij3mbTP9CK1a5oeRvw_9-11" target="ij3mbTP9CK1a5oeRvw_9-13">
          <mxGeometry relative="1" as="geometry" />
        </mxCell>
        <mxCell id="ij3mbTP9CK1a5oeRvw_9-10" value="yes" style="edgeStyle=orthogonalEdgeStyle;rounded=0;orthogonalLoop=1;jettySize=auto;html=1;" edge="1" parent="ij3mbTP9CK1a5oeRvw_9-1" source="ij3mbTP9CK1a5oeRvw_9-11" target="ij3mbTP9CK1a5oeRvw_9-15">
          <mxGeometry relative="1" as="geometry" />
        </mxCell>
        <mxCell id="ij3mbTP9CK1a5oeRvw_9-11" value="is success" style="rhombus;whiteSpace=wrap;html=1;" vertex="1" parent="ij3mbTP9CK1a5oeRvw_9-1">
          <mxGeometry x="420" y="150" width="80" height="80" as="geometry" />
        </mxCell>
        <mxCell id="ij3mbTP9CK1a5oeRvw_9-12" style="edgeStyle=orthogonalEdgeStyle;rounded=0;orthogonalLoop=1;jettySize=auto;html=1;" edge="1" parent="ij3mbTP9CK1a5oeRvw_9-1" source="ij3mbTP9CK1a5oeRvw_9-13" target="ij3mbTP9CK1a5oeRvw_9-4">
          <mxGeometry relative="1" as="geometry">
            <Array as="points">
              <mxPoint x="620" y="260" />
              <mxPoint x="80" y="260" />
            </Array>
          </mxGeometry>
        </mxCell>
        <mxCell id="ij3mbTP9CK1a5oeRvw_9-13" value="show error" style="whiteSpace=wrap;html=1;" vertex="1" parent="ij3mbTP9CK1a5oeRvw_9-1">
          <mxGeometry x="560" y="160" width="120" height="60" as="geometry" />
        </mxCell>
        <mxCell id="ij3mbTP9CK1a5oeRvw_9-14" style="edgeStyle=orthogonalEdgeStyle;rounded=0;orthogonalLoop=1;jettySize=auto;html=1;" edge="1" parent="ij3mbTP9CK1a5oeRvw_9-1" source="ij3mbTP9CK1a5oeRvw_9-15" target="ij3mbTP9CK1a5oeRvw_9-4">
          <mxGeometry relative="1" as="geometry" />
        </mxCell>
        <mxCell id="ij3mbTP9CK1a5oeRvw_9-15" value="show persons logs" style="whiteSpace=wrap;html=1;" vertex="1" parent="ij3mbTP9CK1a5oeRvw_9-1">
          <mxGeometry x="200" y="160" width="120" height="60" as="geometry" />
        </mxCell>
      </root>
    </mxGraphModel>
  </diagram>
  <diagram name="6 read communication events log" id="d64nFDlsJlGGZmqXmkQ0">
    <mxGraphModel dx="1042" dy="626" grid="1" gridSize="10" guides="1" tooltips="1" connect="1" arrows="1" fold="1" page="1" pageScale="1" pageWidth="827" pageHeight="1169" math="0" shadow="0">
      <root>
        <mxCell id="lcUsmfIbSRXcav79x02x-0" />
        <mxCell id="lcUsmfIbSRXcav79x02x-1" parent="lcUsmfIbSRXcav79x02x-0" />
        <mxCell id="lcUsmfIbSRXcav79x02x-2" value="" style="edgeStyle=orthogonalEdgeStyle;rounded=0;orthogonalLoop=1;jettySize=auto;html=1;" edge="1" parent="lcUsmfIbSRXcav79x02x-1" source="lcUsmfIbSRXcav79x02x-3" target="lcUsmfIbSRXcav79x02x-6">
          <mxGeometry relative="1" as="geometry" />
        </mxCell>
        <mxCell id="lcUsmfIbSRXcav79x02x-3" value="start" style="rounded=1;whiteSpace=wrap;html=1;arcSize=50;" vertex="1" parent="lcUsmfIbSRXcav79x02x-1">
          <mxGeometry x="20" y="20" width="120" height="60" as="geometry" />
        </mxCell>
        <mxCell id="lcUsmfIbSRXcav79x02x-4" value="end" style="rounded=1;whiteSpace=wrap;html=1;arcSize=50;" vertex="1" parent="lcUsmfIbSRXcav79x02x-1">
          <mxGeometry x="20" y="160" width="120" height="60" as="geometry" />
        </mxCell>
        <mxCell id="lcUsmfIbSRXcav79x02x-5" value="" style="edgeStyle=orthogonalEdgeStyle;rounded=0;orthogonalLoop=1;jettySize=auto;html=1;" edge="1" parent="lcUsmfIbSRXcav79x02x-1" source="lcUsmfIbSRXcav79x02x-6" target="lcUsmfIbSRXcav79x02x-8">
          <mxGeometry relative="1" as="geometry" />
        </mxCell>
        <mxCell id="lcUsmfIbSRXcav79x02x-6" value="check auth" style="shape=process;whiteSpace=wrap;html=1;backgroundOutline=1;" vertex="1" parent="lcUsmfIbSRXcav79x02x-1">
          <mxGeometry x="200" y="20" width="120" height="60" as="geometry" />
        </mxCell>
        <mxCell id="lcUsmfIbSRXcav79x02x-7" value="" style="edgeStyle=orthogonalEdgeStyle;rounded=0;orthogonalLoop=1;jettySize=auto;html=1;" edge="1" parent="lcUsmfIbSRXcav79x02x-1" source="lcUsmfIbSRXcav79x02x-8" target="lcUsmfIbSRXcav79x02x-11">
          <mxGeometry relative="1" as="geometry" />
        </mxCell>
        <mxCell id="lcUsmfIbSRXcav79x02x-8" value="use access token to get communication event logs" style="whiteSpace=wrap;html=1;" vertex="1" parent="lcUsmfIbSRXcav79x02x-1">
          <mxGeometry x="400" y="20" width="120" height="60" as="geometry" />
        </mxCell>
        <mxCell id="lcUsmfIbSRXcav79x02x-9" value="no" style="edgeStyle=orthogonalEdgeStyle;rounded=0;orthogonalLoop=1;jettySize=auto;html=1;" edge="1" parent="lcUsmfIbSRXcav79x02x-1" source="lcUsmfIbSRXcav79x02x-11" target="lcUsmfIbSRXcav79x02x-13">
          <mxGeometry relative="1" as="geometry" />
        </mxCell>
        <mxCell id="lcUsmfIbSRXcav79x02x-10" value="yes" style="edgeStyle=orthogonalEdgeStyle;rounded=0;orthogonalLoop=1;jettySize=auto;html=1;" edge="1" parent="lcUsmfIbSRXcav79x02x-1" source="lcUsmfIbSRXcav79x02x-11" target="lcUsmfIbSRXcav79x02x-15">
          <mxGeometry relative="1" as="geometry" />
        </mxCell>
        <mxCell id="lcUsmfIbSRXcav79x02x-11" value="is success" style="rhombus;whiteSpace=wrap;html=1;" vertex="1" parent="lcUsmfIbSRXcav79x02x-1">
          <mxGeometry x="420" y="150" width="80" height="80" as="geometry" />
        </mxCell>
        <mxCell id="lcUsmfIbSRXcav79x02x-12" style="edgeStyle=orthogonalEdgeStyle;rounded=0;orthogonalLoop=1;jettySize=auto;html=1;" edge="1" parent="lcUsmfIbSRXcav79x02x-1" source="lcUsmfIbSRXcav79x02x-13" target="lcUsmfIbSRXcav79x02x-4">
          <mxGeometry relative="1" as="geometry">
            <Array as="points">
              <mxPoint x="620" y="260" />
              <mxPoint x="80" y="260" />
            </Array>
          </mxGeometry>
        </mxCell>
        <mxCell id="lcUsmfIbSRXcav79x02x-13" value="show error" style="whiteSpace=wrap;html=1;" vertex="1" parent="lcUsmfIbSRXcav79x02x-1">
          <mxGeometry x="560" y="160" width="120" height="60" as="geometry" />
        </mxCell>
        <mxCell id="lcUsmfIbSRXcav79x02x-14" style="edgeStyle=orthogonalEdgeStyle;rounded=0;orthogonalLoop=1;jettySize=auto;html=1;" edge="1" parent="lcUsmfIbSRXcav79x02x-1" source="lcUsmfIbSRXcav79x02x-15" target="lcUsmfIbSRXcav79x02x-4">
          <mxGeometry relative="1" as="geometry" />
        </mxCell>
        <mxCell id="lcUsmfIbSRXcav79x02x-15" value="show communication event logs" style="whiteSpace=wrap;html=1;" vertex="1" parent="lcUsmfIbSRXcav79x02x-1">
          <mxGeometry x="200" y="160" width="120" height="60" as="geometry" />
        </mxCell>
      </root>
    </mxGraphModel>
  </diagram>
  <diagram name="create mold" id="1QbWZeA6MTVED_bgXNjE">
    <mxGraphModel dx="1042" dy="626" grid="1" gridSize="10" guides="1" tooltips="1" connect="1" arrows="1" fold="1" page="1" pageScale="1" pageWidth="827" pageHeight="1169" math="0" shadow="0">
      <root>
        <mxCell id="XhHmiUflHOxw2_ojajZN-0" />
        <mxCell id="XhHmiUflHOxw2_ojajZN-1" parent="XhHmiUflHOxw2_ojajZN-0" />
        <mxCell id="XhHmiUflHOxw2_ojajZN-2" value="" style="edgeStyle=orthogonalEdgeStyle;rounded=0;orthogonalLoop=1;jettySize=auto;html=1;" parent="XhHmiUflHOxw2_ojajZN-1" source="XhHmiUflHOxw2_ojajZN-3" target="XhHmiUflHOxw2_ojajZN-6" edge="1">
          <mxGeometry relative="1" as="geometry" />
        </mxCell>
        <mxCell id="XhHmiUflHOxw2_ojajZN-3" value="start" style="rounded=1;whiteSpace=wrap;html=1;arcSize=50;" parent="XhHmiUflHOxw2_ojajZN-1" vertex="1">
          <mxGeometry x="20" y="30" width="120" height="60" as="geometry" />
        </mxCell>
        <mxCell id="XhHmiUflHOxw2_ojajZN-4" value="end" style="rounded=1;whiteSpace=wrap;html=1;arcSize=50;" parent="XhHmiUflHOxw2_ojajZN-1" vertex="1">
          <mxGeometry x="20" y="170" width="120" height="60" as="geometry" />
        </mxCell>
        <mxCell id="XhHmiUflHOxw2_ojajZN-5" value="" style="edgeStyle=orthogonalEdgeStyle;rounded=0;orthogonalLoop=1;jettySize=auto;html=1;" parent="XhHmiUflHOxw2_ojajZN-1" source="XhHmiUflHOxw2_ojajZN-6" target="XhHmiUflHOxw2_ojajZN-8" edge="1">
          <mxGeometry relative="1" as="geometry" />
        </mxCell>
        <mxCell id="XhHmiUflHOxw2_ojajZN-6" value="press create mold button" style="whiteSpace=wrap;html=1;rounded=0;arcSize=50;" parent="XhHmiUflHOxw2_ojajZN-1" vertex="1">
          <mxGeometry x="220" y="30" width="120" height="60" as="geometry" />
        </mxCell>
        <mxCell id="XhHmiUflHOxw2_ojajZN-7" value="" style="edgeStyle=orthogonalEdgeStyle;rounded=0;orthogonalLoop=1;jettySize=auto;html=1;" parent="XhHmiUflHOxw2_ojajZN-1" source="XhHmiUflHOxw2_ojajZN-8" target="XhHmiUflHOxw2_ojajZN-10" edge="1">
          <mxGeometry relative="1" as="geometry" />
        </mxCell>
        <mxCell id="XhHmiUflHOxw2_ojajZN-8" value="input mold detail" style="whiteSpace=wrap;html=1;rounded=0;arcSize=50;" parent="XhHmiUflHOxw2_ojajZN-1" vertex="1">
          <mxGeometry x="420" y="30" width="120" height="60" as="geometry" />
        </mxCell>
        <mxCell id="XhHmiUflHOxw2_ojajZN-9" value="" style="edgeStyle=orthogonalEdgeStyle;rounded=0;orthogonalLoop=1;jettySize=auto;html=1;" parent="XhHmiUflHOxw2_ojajZN-1" source="XhHmiUflHOxw2_ojajZN-10" target="XhHmiUflHOxw2_ojajZN-12" edge="1">
          <mxGeometry relative="1" as="geometry" />
        </mxCell>
        <mxCell id="XhHmiUflHOxw2_ojajZN-10" value="check auth" style="shape=process;whiteSpace=wrap;html=1;backgroundOutline=1;" parent="XhHmiUflHOxw2_ojajZN-1" vertex="1">
          <mxGeometry x="620" y="30" width="120" height="60" as="geometry" />
        </mxCell>
        <mxCell id="XhHmiUflHOxw2_ojajZN-11" value="" style="edgeStyle=orthogonalEdgeStyle;rounded=0;orthogonalLoop=1;jettySize=auto;html=1;" parent="XhHmiUflHOxw2_ojajZN-1" source="XhHmiUflHOxw2_ojajZN-12" target="XhHmiUflHOxw2_ojajZN-15" edge="1">
          <mxGeometry relative="1" as="geometry" />
        </mxCell>
        <mxCell id="XhHmiUflHOxw2_ojajZN-12" value="use access token to create mold" style="whiteSpace=wrap;html=1;" parent="XhHmiUflHOxw2_ojajZN-1" vertex="1">
          <mxGeometry x="620" y="170" width="120" height="60" as="geometry" />
        </mxCell>
        <mxCell id="XhHmiUflHOxw2_ojajZN-13" value="yes" style="edgeStyle=orthogonalEdgeStyle;rounded=0;orthogonalLoop=1;jettySize=auto;html=1;" parent="XhHmiUflHOxw2_ojajZN-1" source="XhHmiUflHOxw2_ojajZN-15" target="XhHmiUflHOxw2_ojajZN-17" edge="1">
          <mxGeometry relative="1" as="geometry" />
        </mxCell>
        <mxCell id="XhHmiUflHOxw2_ojajZN-14" value="no" style="edgeStyle=orthogonalEdgeStyle;rounded=0;orthogonalLoop=1;jettySize=auto;html=1;" parent="XhHmiUflHOxw2_ojajZN-1" source="XhHmiUflHOxw2_ojajZN-15" target="XhHmiUflHOxw2_ojajZN-20" edge="1">
          <mxGeometry relative="1" as="geometry">
            <mxPoint x="480" y="310" as="targetPoint" />
          </mxGeometry>
        </mxCell>
        <mxCell id="XhHmiUflHOxw2_ojajZN-15" value="success" style="rhombus;whiteSpace=wrap;html=1;" parent="XhHmiUflHOxw2_ojajZN-1" vertex="1">
          <mxGeometry x="440" y="160" width="80" height="80" as="geometry" />
        </mxCell>
        <mxCell id="XhHmiUflHOxw2_ojajZN-16" style="edgeStyle=orthogonalEdgeStyle;rounded=0;orthogonalLoop=1;jettySize=auto;html=1;" parent="XhHmiUflHOxw2_ojajZN-1" source="XhHmiUflHOxw2_ojajZN-17" target="XhHmiUflHOxw2_ojajZN-4" edge="1">
          <mxGeometry relative="1" as="geometry" />
        </mxCell>
        <mxCell id="XhHmiUflHOxw2_ojajZN-17" value="show molds" style="rounded=0;whiteSpace=wrap;html=1;" parent="XhHmiUflHOxw2_ojajZN-1" vertex="1">
          <mxGeometry x="220" y="170" width="120" height="60" as="geometry" />
        </mxCell>
        <mxCell id="XhHmiUflHOxw2_ojajZN-18" value="no" style="edgeStyle=orthogonalEdgeStyle;rounded=0;orthogonalLoop=1;jettySize=auto;html=1;" parent="XhHmiUflHOxw2_ojajZN-1" source="XhHmiUflHOxw2_ojajZN-20" target="XhHmiUflHOxw2_ojajZN-24" edge="1">
          <mxGeometry relative="1" as="geometry">
            <mxPoint x="320" y="350" as="targetPoint" />
          </mxGeometry>
        </mxCell>
        <mxCell id="XhHmiUflHOxw2_ojajZN-19" value="yes" style="edgeStyle=orthogonalEdgeStyle;rounded=0;orthogonalLoop=1;jettySize=auto;html=1;" parent="XhHmiUflHOxw2_ojajZN-1" source="XhHmiUflHOxw2_ojajZN-20" target="XhHmiUflHOxw2_ojajZN-22" edge="1">
          <mxGeometry relative="1" as="geometry">
            <mxPoint x="480" y="460" as="targetPoint" />
          </mxGeometry>
        </mxCell>
        <mxCell id="XhHmiUflHOxw2_ojajZN-20" value="&lt;font style=&quot;font-size: 10px;&quot;&gt;is unauthorize&lt;/font&gt;" style="rhombus;whiteSpace=wrap;html=1;" parent="XhHmiUflHOxw2_ojajZN-1" vertex="1">
          <mxGeometry x="440" y="310" width="80" height="80" as="geometry" />
        </mxCell>
        <mxCell id="XhHmiUflHOxw2_ojajZN-21" style="edgeStyle=orthogonalEdgeStyle;rounded=0;orthogonalLoop=1;jettySize=auto;html=1;" parent="XhHmiUflHOxw2_ojajZN-1" source="XhHmiUflHOxw2_ojajZN-22" target="XhHmiUflHOxw2_ojajZN-4" edge="1">
          <mxGeometry relative="1" as="geometry">
            <Array as="points">
              <mxPoint x="680" y="420" />
              <mxPoint x="80" y="420" />
            </Array>
          </mxGeometry>
        </mxCell>
        <mxCell id="XhHmiUflHOxw2_ojajZN-22" value="logout" style="shape=process;whiteSpace=wrap;html=1;backgroundOutline=1;" parent="XhHmiUflHOxw2_ojajZN-1" vertex="1">
          <mxGeometry x="620" y="320" width="120" height="60" as="geometry" />
        </mxCell>
        <mxCell id="XhHmiUflHOxw2_ojajZN-23" style="edgeStyle=orthogonalEdgeStyle;rounded=0;orthogonalLoop=1;jettySize=auto;html=1;" parent="XhHmiUflHOxw2_ojajZN-1" source="XhHmiUflHOxw2_ojajZN-24" target="XhHmiUflHOxw2_ojajZN-4" edge="1">
          <mxGeometry relative="1" as="geometry" />
        </mxCell>
        <mxCell id="XhHmiUflHOxw2_ojajZN-24" value="show error" style="rounded=0;whiteSpace=wrap;html=1;" parent="XhHmiUflHOxw2_ojajZN-1" vertex="1">
          <mxGeometry x="220" y="320" width="120" height="60" as="geometry" />
        </mxCell>
      </root>
    </mxGraphModel>
  </diagram>
  <diagram name="read mold" id="wGGgUZe2lC8epBErSkKW">
    <mxGraphModel dx="1042" dy="626" grid="1" gridSize="10" guides="1" tooltips="1" connect="1" arrows="1" fold="1" page="1" pageScale="1" pageWidth="827" pageHeight="1169" math="0" shadow="0">
      <root>
        <mxCell id="_BpClYvlnPE_yRXu2dc3-0" />
        <mxCell id="_BpClYvlnPE_yRXu2dc3-1" parent="_BpClYvlnPE_yRXu2dc3-0" />
        <mxCell id="_BpClYvlnPE_yRXu2dc3-2" value="" style="edgeStyle=orthogonalEdgeStyle;rounded=0;orthogonalLoop=1;jettySize=auto;html=1;" parent="_BpClYvlnPE_yRXu2dc3-1" source="_BpClYvlnPE_yRXu2dc3-3" target="_BpClYvlnPE_yRXu2dc3-6" edge="1">
          <mxGeometry relative="1" as="geometry" />
        </mxCell>
        <mxCell id="_BpClYvlnPE_yRXu2dc3-3" value="start" style="rounded=1;whiteSpace=wrap;html=1;arcSize=50;" parent="_BpClYvlnPE_yRXu2dc3-1" vertex="1">
          <mxGeometry x="20" y="20" width="120" height="60" as="geometry" />
        </mxCell>
        <mxCell id="_BpClYvlnPE_yRXu2dc3-4" value="end" style="rounded=1;whiteSpace=wrap;html=1;arcSize=50;" parent="_BpClYvlnPE_yRXu2dc3-1" vertex="1">
          <mxGeometry x="20" y="160" width="120" height="60" as="geometry" />
        </mxCell>
        <mxCell id="_BpClYvlnPE_yRXu2dc3-5" value="" style="edgeStyle=orthogonalEdgeStyle;rounded=0;orthogonalLoop=1;jettySize=auto;html=1;" parent="_BpClYvlnPE_yRXu2dc3-1" source="_BpClYvlnPE_yRXu2dc3-6" target="_BpClYvlnPE_yRXu2dc3-8" edge="1">
          <mxGeometry relative="1" as="geometry" />
        </mxCell>
        <mxCell id="_BpClYvlnPE_yRXu2dc3-6" value="check auth" style="shape=process;whiteSpace=wrap;html=1;backgroundOutline=1;" parent="_BpClYvlnPE_yRXu2dc3-1" vertex="1">
          <mxGeometry x="200" y="20" width="120" height="60" as="geometry" />
        </mxCell>
        <mxCell id="_BpClYvlnPE_yRXu2dc3-7" value="" style="edgeStyle=orthogonalEdgeStyle;rounded=0;orthogonalLoop=1;jettySize=auto;html=1;" parent="_BpClYvlnPE_yRXu2dc3-1" source="_BpClYvlnPE_yRXu2dc3-8" target="_BpClYvlnPE_yRXu2dc3-11" edge="1">
          <mxGeometry relative="1" as="geometry" />
        </mxCell>
        <mxCell id="_BpClYvlnPE_yRXu2dc3-8" value="use access token to get molds" style="whiteSpace=wrap;html=1;" parent="_BpClYvlnPE_yRXu2dc3-1" vertex="1">
          <mxGeometry x="400" y="20" width="120" height="60" as="geometry" />
        </mxCell>
        <mxCell id="_BpClYvlnPE_yRXu2dc3-9" value="no" style="edgeStyle=orthogonalEdgeStyle;rounded=0;orthogonalLoop=1;jettySize=auto;html=1;" parent="_BpClYvlnPE_yRXu2dc3-1" source="_BpClYvlnPE_yRXu2dc3-11" target="_BpClYvlnPE_yRXu2dc3-13" edge="1">
          <mxGeometry relative="1" as="geometry" />
        </mxCell>
        <mxCell id="_BpClYvlnPE_yRXu2dc3-10" value="yes" style="edgeStyle=orthogonalEdgeStyle;rounded=0;orthogonalLoop=1;jettySize=auto;html=1;" parent="_BpClYvlnPE_yRXu2dc3-1" source="_BpClYvlnPE_yRXu2dc3-11" target="_BpClYvlnPE_yRXu2dc3-15" edge="1">
          <mxGeometry relative="1" as="geometry" />
        </mxCell>
        <mxCell id="_BpClYvlnPE_yRXu2dc3-11" value="is success" style="rhombus;whiteSpace=wrap;html=1;" parent="_BpClYvlnPE_yRXu2dc3-1" vertex="1">
          <mxGeometry x="420" y="150" width="80" height="80" as="geometry" />
        </mxCell>
        <mxCell id="_BpClYvlnPE_yRXu2dc3-12" style="edgeStyle=orthogonalEdgeStyle;rounded=0;orthogonalLoop=1;jettySize=auto;html=1;" parent="_BpClYvlnPE_yRXu2dc3-1" source="_BpClYvlnPE_yRXu2dc3-13" target="_BpClYvlnPE_yRXu2dc3-4" edge="1">
          <mxGeometry relative="1" as="geometry">
            <Array as="points">
              <mxPoint x="620" y="260" />
              <mxPoint x="80" y="260" />
            </Array>
          </mxGeometry>
        </mxCell>
        <mxCell id="_BpClYvlnPE_yRXu2dc3-13" value="show error" style="whiteSpace=wrap;html=1;" parent="_BpClYvlnPE_yRXu2dc3-1" vertex="1">
          <mxGeometry x="560" y="160" width="120" height="60" as="geometry" />
        </mxCell>
        <mxCell id="_BpClYvlnPE_yRXu2dc3-14" style="edgeStyle=orthogonalEdgeStyle;rounded=0;orthogonalLoop=1;jettySize=auto;html=1;" parent="_BpClYvlnPE_yRXu2dc3-1" source="_BpClYvlnPE_yRXu2dc3-15" target="_BpClYvlnPE_yRXu2dc3-4" edge="1">
          <mxGeometry relative="1" as="geometry" />
        </mxCell>
        <mxCell id="_BpClYvlnPE_yRXu2dc3-15" value="show molds" style="whiteSpace=wrap;html=1;" parent="_BpClYvlnPE_yRXu2dc3-1" vertex="1">
          <mxGeometry x="200" y="160" width="120" height="60" as="geometry" />
        </mxCell>
      </root>
    </mxGraphModel>
  </diagram>
  <diagram name="update mold" id="R51m7mTaeBvdWb_c1dK4">
    <mxGraphModel dx="1042" dy="626" grid="1" gridSize="10" guides="1" tooltips="1" connect="1" arrows="1" fold="1" page="1" pageScale="1" pageWidth="827" pageHeight="1169" math="0" shadow="0">
      <root>
        <mxCell id="AvFdiS71eTT8Rk40K7gw-0" />
        <mxCell id="AvFdiS71eTT8Rk40K7gw-1" parent="AvFdiS71eTT8Rk40K7gw-0" />
        <mxCell id="AvFdiS71eTT8Rk40K7gw-2" value="" style="edgeStyle=orthogonalEdgeStyle;rounded=0;orthogonalLoop=1;jettySize=auto;html=1;" parent="AvFdiS71eTT8Rk40K7gw-1" source="AvFdiS71eTT8Rk40K7gw-3" target="AvFdiS71eTT8Rk40K7gw-6" edge="1">
          <mxGeometry relative="1" as="geometry" />
        </mxCell>
        <mxCell id="AvFdiS71eTT8Rk40K7gw-3" value="start" style="rounded=1;whiteSpace=wrap;html=1;arcSize=50;" parent="AvFdiS71eTT8Rk40K7gw-1" vertex="1">
          <mxGeometry x="20" y="30" width="120" height="60" as="geometry" />
        </mxCell>
        <mxCell id="AvFdiS71eTT8Rk40K7gw-4" value="end" style="rounded=1;whiteSpace=wrap;html=1;arcSize=50;" parent="AvFdiS71eTT8Rk40K7gw-1" vertex="1">
          <mxGeometry x="20" y="170" width="120" height="60" as="geometry" />
        </mxCell>
        <mxCell id="AvFdiS71eTT8Rk40K7gw-5" value="" style="edgeStyle=orthogonalEdgeStyle;rounded=0;orthogonalLoop=1;jettySize=auto;html=1;" parent="AvFdiS71eTT8Rk40K7gw-1" source="AvFdiS71eTT8Rk40K7gw-6" target="AvFdiS71eTT8Rk40K7gw-8" edge="1">
          <mxGeometry relative="1" as="geometry" />
        </mxCell>
        <mxCell id="AvFdiS71eTT8Rk40K7gw-6" value="press update mold button" style="whiteSpace=wrap;html=1;rounded=0;arcSize=50;" parent="AvFdiS71eTT8Rk40K7gw-1" vertex="1">
          <mxGeometry x="220" y="30" width="120" height="60" as="geometry" />
        </mxCell>
        <mxCell id="AvFdiS71eTT8Rk40K7gw-7" value="" style="edgeStyle=orthogonalEdgeStyle;rounded=0;orthogonalLoop=1;jettySize=auto;html=1;" parent="AvFdiS71eTT8Rk40K7gw-1" source="AvFdiS71eTT8Rk40K7gw-8" target="AvFdiS71eTT8Rk40K7gw-10" edge="1">
          <mxGeometry relative="1" as="geometry" />
        </mxCell>
        <mxCell id="AvFdiS71eTT8Rk40K7gw-8" value="update mold detail" style="whiteSpace=wrap;html=1;rounded=0;arcSize=50;" parent="AvFdiS71eTT8Rk40K7gw-1" vertex="1">
          <mxGeometry x="420" y="30" width="120" height="60" as="geometry" />
        </mxCell>
        <mxCell id="AvFdiS71eTT8Rk40K7gw-9" value="" style="edgeStyle=orthogonalEdgeStyle;rounded=0;orthogonalLoop=1;jettySize=auto;html=1;" parent="AvFdiS71eTT8Rk40K7gw-1" source="AvFdiS71eTT8Rk40K7gw-10" target="AvFdiS71eTT8Rk40K7gw-12" edge="1">
          <mxGeometry relative="1" as="geometry" />
        </mxCell>
        <mxCell id="AvFdiS71eTT8Rk40K7gw-10" value="check auth" style="shape=process;whiteSpace=wrap;html=1;backgroundOutline=1;" parent="AvFdiS71eTT8Rk40K7gw-1" vertex="1">
          <mxGeometry x="620" y="30" width="120" height="60" as="geometry" />
        </mxCell>
        <mxCell id="AvFdiS71eTT8Rk40K7gw-11" value="" style="edgeStyle=orthogonalEdgeStyle;rounded=0;orthogonalLoop=1;jettySize=auto;html=1;" parent="AvFdiS71eTT8Rk40K7gw-1" source="AvFdiS71eTT8Rk40K7gw-12" target="AvFdiS71eTT8Rk40K7gw-15" edge="1">
          <mxGeometry relative="1" as="geometry" />
        </mxCell>
        <mxCell id="AvFdiS71eTT8Rk40K7gw-12" value="use access token to update mold" style="whiteSpace=wrap;html=1;" parent="AvFdiS71eTT8Rk40K7gw-1" vertex="1">
          <mxGeometry x="620" y="170" width="120" height="60" as="geometry" />
        </mxCell>
        <mxCell id="AvFdiS71eTT8Rk40K7gw-13" value="yes" style="edgeStyle=orthogonalEdgeStyle;rounded=0;orthogonalLoop=1;jettySize=auto;html=1;" parent="AvFdiS71eTT8Rk40K7gw-1" source="AvFdiS71eTT8Rk40K7gw-15" target="AvFdiS71eTT8Rk40K7gw-17" edge="1">
          <mxGeometry relative="1" as="geometry" />
        </mxCell>
        <mxCell id="AvFdiS71eTT8Rk40K7gw-14" value="no" style="edgeStyle=orthogonalEdgeStyle;rounded=0;orthogonalLoop=1;jettySize=auto;html=1;" parent="AvFdiS71eTT8Rk40K7gw-1" source="AvFdiS71eTT8Rk40K7gw-15" target="AvFdiS71eTT8Rk40K7gw-20" edge="1">
          <mxGeometry relative="1" as="geometry">
            <mxPoint x="480" y="310" as="targetPoint" />
          </mxGeometry>
        </mxCell>
        <mxCell id="AvFdiS71eTT8Rk40K7gw-15" value="success" style="rhombus;whiteSpace=wrap;html=1;" parent="AvFdiS71eTT8Rk40K7gw-1" vertex="1">
          <mxGeometry x="440" y="160" width="80" height="80" as="geometry" />
        </mxCell>
        <mxCell id="AvFdiS71eTT8Rk40K7gw-16" style="edgeStyle=orthogonalEdgeStyle;rounded=0;orthogonalLoop=1;jettySize=auto;html=1;" parent="AvFdiS71eTT8Rk40K7gw-1" source="AvFdiS71eTT8Rk40K7gw-17" target="AvFdiS71eTT8Rk40K7gw-4" edge="1">
          <mxGeometry relative="1" as="geometry" />
        </mxCell>
        <mxCell id="AvFdiS71eTT8Rk40K7gw-17" value="show molds" style="rounded=0;whiteSpace=wrap;html=1;" parent="AvFdiS71eTT8Rk40K7gw-1" vertex="1">
          <mxGeometry x="220" y="170" width="120" height="60" as="geometry" />
        </mxCell>
        <mxCell id="AvFdiS71eTT8Rk40K7gw-18" value="no" style="edgeStyle=orthogonalEdgeStyle;rounded=0;orthogonalLoop=1;jettySize=auto;html=1;" parent="AvFdiS71eTT8Rk40K7gw-1" source="AvFdiS71eTT8Rk40K7gw-20" target="AvFdiS71eTT8Rk40K7gw-24" edge="1">
          <mxGeometry relative="1" as="geometry">
            <mxPoint x="320" y="350" as="targetPoint" />
          </mxGeometry>
        </mxCell>
        <mxCell id="AvFdiS71eTT8Rk40K7gw-19" value="yes" style="edgeStyle=orthogonalEdgeStyle;rounded=0;orthogonalLoop=1;jettySize=auto;html=1;" parent="AvFdiS71eTT8Rk40K7gw-1" source="AvFdiS71eTT8Rk40K7gw-20" target="AvFdiS71eTT8Rk40K7gw-22" edge="1">
          <mxGeometry relative="1" as="geometry">
            <mxPoint x="480" y="460" as="targetPoint" />
          </mxGeometry>
        </mxCell>
        <mxCell id="AvFdiS71eTT8Rk40K7gw-20" value="&lt;font style=&quot;font-size: 10px;&quot;&gt;is unauthorize&lt;/font&gt;" style="rhombus;whiteSpace=wrap;html=1;" parent="AvFdiS71eTT8Rk40K7gw-1" vertex="1">
          <mxGeometry x="440" y="310" width="80" height="80" as="geometry" />
        </mxCell>
        <mxCell id="AvFdiS71eTT8Rk40K7gw-21" style="edgeStyle=orthogonalEdgeStyle;rounded=0;orthogonalLoop=1;jettySize=auto;html=1;" parent="AvFdiS71eTT8Rk40K7gw-1" source="AvFdiS71eTT8Rk40K7gw-22" target="AvFdiS71eTT8Rk40K7gw-4" edge="1">
          <mxGeometry relative="1" as="geometry">
            <Array as="points">
              <mxPoint x="680" y="420" />
              <mxPoint x="80" y="420" />
            </Array>
          </mxGeometry>
        </mxCell>
        <mxCell id="AvFdiS71eTT8Rk40K7gw-22" value="logout" style="shape=process;whiteSpace=wrap;html=1;backgroundOutline=1;" parent="AvFdiS71eTT8Rk40K7gw-1" vertex="1">
          <mxGeometry x="620" y="320" width="120" height="60" as="geometry" />
        </mxCell>
        <mxCell id="AvFdiS71eTT8Rk40K7gw-23" style="edgeStyle=orthogonalEdgeStyle;rounded=0;orthogonalLoop=1;jettySize=auto;html=1;" parent="AvFdiS71eTT8Rk40K7gw-1" source="AvFdiS71eTT8Rk40K7gw-24" target="AvFdiS71eTT8Rk40K7gw-4" edge="1">
          <mxGeometry relative="1" as="geometry" />
        </mxCell>
        <mxCell id="AvFdiS71eTT8Rk40K7gw-24" value="show error" style="rounded=0;whiteSpace=wrap;html=1;" parent="AvFdiS71eTT8Rk40K7gw-1" vertex="1">
          <mxGeometry x="220" y="320" width="120" height="60" as="geometry" />
        </mxCell>
      </root>
    </mxGraphModel>
  </diagram>
  <diagram name="delete mold" id="BO1FANsMqSMiUf1Cz9Kc">
    <mxGraphModel dx="1042" dy="626" grid="1" gridSize="10" guides="1" tooltips="1" connect="1" arrows="1" fold="1" page="1" pageScale="1" pageWidth="827" pageHeight="1169" math="0" shadow="0">
      <root>
        <mxCell id="RvTqQkzqZXYG2zMOyX2--0" />
        <mxCell id="RvTqQkzqZXYG2zMOyX2--1" parent="RvTqQkzqZXYG2zMOyX2--0" />
        <mxCell id="RvTqQkzqZXYG2zMOyX2--2" value="" style="edgeStyle=orthogonalEdgeStyle;rounded=0;orthogonalLoop=1;jettySize=auto;html=1;" parent="RvTqQkzqZXYG2zMOyX2--1" source="RvTqQkzqZXYG2zMOyX2--3" target="RvTqQkzqZXYG2zMOyX2--6" edge="1">
          <mxGeometry relative="1" as="geometry" />
        </mxCell>
        <mxCell id="RvTqQkzqZXYG2zMOyX2--3" value="start" style="rounded=1;whiteSpace=wrap;html=1;arcSize=50;" parent="RvTqQkzqZXYG2zMOyX2--1" vertex="1">
          <mxGeometry x="20" y="30" width="120" height="60" as="geometry" />
        </mxCell>
        <mxCell id="RvTqQkzqZXYG2zMOyX2--4" value="end" style="rounded=1;whiteSpace=wrap;html=1;arcSize=50;" parent="RvTqQkzqZXYG2zMOyX2--1" vertex="1">
          <mxGeometry x="20" y="170" width="120" height="60" as="geometry" />
        </mxCell>
        <mxCell id="RvTqQkzqZXYG2zMOyX2--5" value="" style="edgeStyle=orthogonalEdgeStyle;rounded=0;orthogonalLoop=1;jettySize=auto;html=1;" parent="RvTqQkzqZXYG2zMOyX2--1" source="RvTqQkzqZXYG2zMOyX2--6" target="RvTqQkzqZXYG2zMOyX2--8" edge="1">
          <mxGeometry relative="1" as="geometry" />
        </mxCell>
        <mxCell id="RvTqQkzqZXYG2zMOyX2--6" value="press update mold button" style="whiteSpace=wrap;html=1;rounded=0;arcSize=50;" parent="RvTqQkzqZXYG2zMOyX2--1" vertex="1">
          <mxGeometry x="220" y="30" width="120" height="60" as="geometry" />
        </mxCell>
        <mxCell id="RvTqQkzqZXYG2zMOyX2--7" value="" style="edgeStyle=orthogonalEdgeStyle;rounded=0;orthogonalLoop=1;jettySize=auto;html=1;" parent="RvTqQkzqZXYG2zMOyX2--1" source="RvTqQkzqZXYG2zMOyX2--8" target="RvTqQkzqZXYG2zMOyX2--10" edge="1">
          <mxGeometry relative="1" as="geometry" />
        </mxCell>
        <mxCell id="RvTqQkzqZXYG2zMOyX2--8" value="press delete mold button" style="whiteSpace=wrap;html=1;rounded=0;arcSize=50;" parent="RvTqQkzqZXYG2zMOyX2--1" vertex="1">
          <mxGeometry x="420" y="30" width="120" height="60" as="geometry" />
        </mxCell>
        <mxCell id="RvTqQkzqZXYG2zMOyX2--9" value="" style="edgeStyle=orthogonalEdgeStyle;rounded=0;orthogonalLoop=1;jettySize=auto;html=1;" parent="RvTqQkzqZXYG2zMOyX2--1" source="RvTqQkzqZXYG2zMOyX2--10" target="RvTqQkzqZXYG2zMOyX2--12" edge="1">
          <mxGeometry relative="1" as="geometry" />
        </mxCell>
        <mxCell id="RvTqQkzqZXYG2zMOyX2--10" value="check auth" style="shape=process;whiteSpace=wrap;html=1;backgroundOutline=1;" parent="RvTqQkzqZXYG2zMOyX2--1" vertex="1">
          <mxGeometry x="620" y="30" width="120" height="60" as="geometry" />
        </mxCell>
        <mxCell id="RvTqQkzqZXYG2zMOyX2--11" value="" style="edgeStyle=orthogonalEdgeStyle;rounded=0;orthogonalLoop=1;jettySize=auto;html=1;" parent="RvTqQkzqZXYG2zMOyX2--1" source="RvTqQkzqZXYG2zMOyX2--12" target="RvTqQkzqZXYG2zMOyX2--15" edge="1">
          <mxGeometry relative="1" as="geometry" />
        </mxCell>
        <mxCell id="RvTqQkzqZXYG2zMOyX2--12" value="use access token to delete mold" style="whiteSpace=wrap;html=1;" parent="RvTqQkzqZXYG2zMOyX2--1" vertex="1">
          <mxGeometry x="620" y="170" width="120" height="60" as="geometry" />
        </mxCell>
        <mxCell id="RvTqQkzqZXYG2zMOyX2--13" value="yes" style="edgeStyle=orthogonalEdgeStyle;rounded=0;orthogonalLoop=1;jettySize=auto;html=1;" parent="RvTqQkzqZXYG2zMOyX2--1" source="RvTqQkzqZXYG2zMOyX2--15" target="RvTqQkzqZXYG2zMOyX2--17" edge="1">
          <mxGeometry relative="1" as="geometry" />
        </mxCell>
        <mxCell id="RvTqQkzqZXYG2zMOyX2--14" value="no" style="edgeStyle=orthogonalEdgeStyle;rounded=0;orthogonalLoop=1;jettySize=auto;html=1;" parent="RvTqQkzqZXYG2zMOyX2--1" source="RvTqQkzqZXYG2zMOyX2--15" target="RvTqQkzqZXYG2zMOyX2--20" edge="1">
          <mxGeometry relative="1" as="geometry">
            <mxPoint x="480" y="310" as="targetPoint" />
          </mxGeometry>
        </mxCell>
        <mxCell id="RvTqQkzqZXYG2zMOyX2--15" value="success" style="rhombus;whiteSpace=wrap;html=1;" parent="RvTqQkzqZXYG2zMOyX2--1" vertex="1">
          <mxGeometry x="440" y="160" width="80" height="80" as="geometry" />
        </mxCell>
        <mxCell id="RvTqQkzqZXYG2zMOyX2--16" style="edgeStyle=orthogonalEdgeStyle;rounded=0;orthogonalLoop=1;jettySize=auto;html=1;" parent="RvTqQkzqZXYG2zMOyX2--1" source="RvTqQkzqZXYG2zMOyX2--17" target="RvTqQkzqZXYG2zMOyX2--4" edge="1">
          <mxGeometry relative="1" as="geometry" />
        </mxCell>
        <mxCell id="RvTqQkzqZXYG2zMOyX2--17" value="show molds" style="rounded=0;whiteSpace=wrap;html=1;" parent="RvTqQkzqZXYG2zMOyX2--1" vertex="1">
          <mxGeometry x="220" y="170" width="120" height="60" as="geometry" />
        </mxCell>
        <mxCell id="RvTqQkzqZXYG2zMOyX2--18" value="no" style="edgeStyle=orthogonalEdgeStyle;rounded=0;orthogonalLoop=1;jettySize=auto;html=1;" parent="RvTqQkzqZXYG2zMOyX2--1" source="RvTqQkzqZXYG2zMOyX2--20" target="RvTqQkzqZXYG2zMOyX2--24" edge="1">
          <mxGeometry relative="1" as="geometry">
            <mxPoint x="320" y="350" as="targetPoint" />
          </mxGeometry>
        </mxCell>
        <mxCell id="RvTqQkzqZXYG2zMOyX2--19" value="yes" style="edgeStyle=orthogonalEdgeStyle;rounded=0;orthogonalLoop=1;jettySize=auto;html=1;" parent="RvTqQkzqZXYG2zMOyX2--1" source="RvTqQkzqZXYG2zMOyX2--20" target="RvTqQkzqZXYG2zMOyX2--22" edge="1">
          <mxGeometry relative="1" as="geometry">
            <mxPoint x="480" y="460" as="targetPoint" />
          </mxGeometry>
        </mxCell>
        <mxCell id="RvTqQkzqZXYG2zMOyX2--20" value="&lt;font style=&quot;font-size: 10px;&quot;&gt;is unauthorize&lt;/font&gt;" style="rhombus;whiteSpace=wrap;html=1;" parent="RvTqQkzqZXYG2zMOyX2--1" vertex="1">
          <mxGeometry x="440" y="310" width="80" height="80" as="geometry" />
        </mxCell>
        <mxCell id="RvTqQkzqZXYG2zMOyX2--21" style="edgeStyle=orthogonalEdgeStyle;rounded=0;orthogonalLoop=1;jettySize=auto;html=1;" parent="RvTqQkzqZXYG2zMOyX2--1" source="RvTqQkzqZXYG2zMOyX2--22" target="RvTqQkzqZXYG2zMOyX2--4" edge="1">
          <mxGeometry relative="1" as="geometry">
            <Array as="points">
              <mxPoint x="680" y="420" />
              <mxPoint x="80" y="420" />
            </Array>
          </mxGeometry>
        </mxCell>
        <mxCell id="RvTqQkzqZXYG2zMOyX2--22" value="logout" style="shape=process;whiteSpace=wrap;html=1;backgroundOutline=1;" parent="RvTqQkzqZXYG2zMOyX2--1" vertex="1">
          <mxGeometry x="620" y="320" width="120" height="60" as="geometry" />
        </mxCell>
        <mxCell id="RvTqQkzqZXYG2zMOyX2--23" style="edgeStyle=orthogonalEdgeStyle;rounded=0;orthogonalLoop=1;jettySize=auto;html=1;" parent="RvTqQkzqZXYG2zMOyX2--1" source="RvTqQkzqZXYG2zMOyX2--24" target="RvTqQkzqZXYG2zMOyX2--4" edge="1">
          <mxGeometry relative="1" as="geometry" />
        </mxCell>
        <mxCell id="RvTqQkzqZXYG2zMOyX2--24" value="show error" style="rounded=0;whiteSpace=wrap;html=1;" parent="RvTqQkzqZXYG2zMOyX2--1" vertex="1">
          <mxGeometry x="220" y="320" width="120" height="60" as="geometry" />
        </mxCell>
      </root>
    </mxGraphModel>
  </diagram>
</mxfile>
